<svg width="20" height="20" viewBox="0 0 20 20" xmlns="http://www.w3.org/2000/svg"><path d="M19.15 5.25272727c-.5425-.91236363-1.13125-1.08018182-2.33-1.144C15.6225 4.03190909 12.61125 4 10.0025 4c-2.61375 0-5.62625.03190909-6.8225.10754545-1.19625.065-1.78625.23163637-2.33375 1.14518182C.2875 6.16390909 0 7.73336364 0 10.4964545v.0094546c0 2.7512727.2875 4.3325454.84625 5.2342727.5475.9123637 1.13625 1.0778182 2.3325 1.1546364C4.37625 16.961 7.38875 17 10.0025 17c2.60875 0 5.62-.039 6.81875-.104 1.19875-.0768182 1.7875-.2422727 2.33-1.1546364.56375-.9017272.84875-2.483.84875-5.2342727v-.0059091-.0035454c0-2.76427276-.285-4.33372731-.85-5.24490913zM7.5 14.0454545V6.95454545L13.75 10.5 7.5 14.0454545z" fill-rule="nonzero"/></svg>