<svg width="20" height="20" viewBox="0 0 20 20" xmlns="http://www.w3.org/2000/svg"><path d="M14.0173188 0C17.2968478 0 19.965 2.66811594 19.965 5.94768116v8.06963764c0 3.2795653-2.6681159 5.9476812-5.9476812 5.9476812H5.94768116C2.66811594 19.965 0 17.2968841 0 14.0173188V5.94768116C0 2.66811594 2.66811594 0 5.94768116 0zm0 2.00847826H5.94768116c-2.17554348 0-3.9392029 1.76362319-3.9392029 3.9392029v8.06963764c0 2.1755435 1.76365942 3.9392029 3.9392029 3.9392029h8.06963764c2.1755435 0 3.9392029-1.7636594 3.9392029-3.9392029V5.94768116c0-2.17557971-1.7636594-3.9392029-3.9392029-3.9392029zM9.9825 4.81884058c2.8472464 0 5.1636594 2.31637681 5.1636594 5.16362319 0 2.84724633-2.316413 5.16365943-5.1636594 5.16365943-2.84724638 0-5.16365942-2.3164493-5.16365942-5.16365943 0-2.84721015 2.31641304-5.16362319 5.16365942-5.16362319zm0 2.00847826c-1.74253623 0-3.15518116 1.4126087-3.15518116 3.15518116 0 1.7425725 1.4126087 3.1551812 3.15518116 3.1551812 1.7425362 0 3.1551812-1.412645 3.1551812-3.1551812 0-1.74257246-1.4126087-3.15518116-3.1551812-3.15518116zm5.1736594-3.20702898c.6833523 0 1.2373189.55396651 1.2373189 1.23731884 0 .68335232-.5539666 1.23731884-1.2373189 1.23731884s-1.2373188-.55396652-1.2373188-1.23731884c0-.68335233.5539665-1.23731884 1.2373188-1.23731884z" fill-rule="nonzero"/></svg>